<mxfile host="app.diagrams.net" modified="2023-01-20T22:09:32.610Z" agent="5.0 (Macintosh)" etag="Z5ISmgZjW57tMbst2-kv" version="20.8.5" type="github">
  <diagram id="WIKZO_O39W_F3QcdNPoz" name="Page-1">
    <mxGraphModel dx="1910" dy="1813" grid="1" gridSize="10" guides="1" tooltips="1" connect="1" arrows="1" fold="1" page="1" pageScale="1" pageWidth="850" pageHeight="1100" math="0" shadow="0">
      <root>
        <mxCell id="0" />
        <mxCell id="1" parent="0" />
        <mxCell id="__Uh9FplEamvk5oUluky-12" value="Mountain Peak" style="swimlane;childLayout=stackLayout;horizontal=1;startSize=30;horizontalStack=0;rounded=1;fontSize=15;fontStyle=0;strokeWidth=2;resizeParent=0;resizeLast=1;shadow=0;dashed=0;align=center;" parent="1" vertex="1">
          <mxGeometry x="350" y="70" width="240" height="200" as="geometry" />
        </mxCell>
        <mxCell id="__Uh9FplEamvk5oUluky-13" value="name [1..1]    - {PK} - &#xa;                        [&quot;Mount Superior&quot;, &#xa;                          &quot;Mount Baldy&quot;, &#xa;                          &quot;Twin Peaks&quot;, &#xa;                          &quot;Hidden Peak&quot;]&#xa;elevation&#xa;latitude&#xa;longitude&#xa;" style="align=left;strokeColor=none;fillColor=none;spacingLeft=4;fontSize=15;verticalAlign=top;resizable=0;rotatable=0;part=1;" parent="__Uh9FplEamvk5oUluky-12" vertex="1">
          <mxGeometry y="30" width="240" height="170" as="geometry" />
        </mxCell>
        <mxCell id="__Uh9FplEamvk5oUluky-28" style="edgeStyle=orthogonalEdgeStyle;rounded=0;orthogonalLoop=1;jettySize=auto;html=1;exitX=0.5;exitY=0;exitDx=0;exitDy=0;entryX=0;entryY=0.5;entryDx=0;entryDy=0;fontSize=15;" parent="1" source="__Uh9FplEamvk5oUluky-15" target="__Uh9FplEamvk5oUluky-12" edge="1">
          <mxGeometry relative="1" as="geometry" />
        </mxCell>
        <mxCell id="__Uh9FplEamvk5oUluky-15" value="Store" style="swimlane;childLayout=stackLayout;horizontal=1;startSize=30;horizontalStack=0;rounded=1;fontSize=15;fontStyle=0;strokeWidth=2;resizeParent=0;resizeLast=1;shadow=0;dashed=0;align=center;" parent="1" vertex="1">
          <mxGeometry x="30" y="330" width="220" height="90" as="geometry" />
        </mxCell>
        <mxCell id="__Uh9FplEamvk5oUluky-16" value="name   - {PK}&#xa;description&#xa;" style="align=left;strokeColor=none;fillColor=none;spacingLeft=4;fontSize=15;verticalAlign=top;resizable=0;rotatable=0;part=1;" parent="__Uh9FplEamvk5oUluky-15" vertex="1">
          <mxGeometry y="30" width="220" height="60" as="geometry" />
        </mxCell>
        <mxCell id="__Uh9FplEamvk5oUluky-17" value="Retail Shop" style="swimlane;childLayout=stackLayout;horizontal=1;startSize=30;horizontalStack=0;rounded=1;fontSize=15;fontStyle=0;strokeWidth=2;resizeParent=0;resizeLast=1;shadow=0;dashed=0;align=center;" parent="1" vertex="1">
          <mxGeometry x="230" y="590" width="220" height="90" as="geometry" />
        </mxCell>
        <mxCell id="__Uh9FplEamvk5oUluky-19" value="Ski Rental Shop" style="swimlane;childLayout=stackLayout;horizontal=1;startSize=30;horizontalStack=0;rounded=1;fontSize=15;fontStyle=0;strokeWidth=2;resizeParent=0;resizeLast=1;shadow=0;dashed=0;align=center;" parent="1" vertex="1">
          <mxGeometry x="-180" y="590" width="220" height="90" as="geometry" />
        </mxCell>
        <mxCell id="__Uh9FplEamvk5oUluky-23" value="" style="triangle;whiteSpace=wrap;html=1;fontSize=15;rotation=-90;" parent="1" vertex="1">
          <mxGeometry x="110" y="410" width="60" height="80" as="geometry" />
        </mxCell>
        <mxCell id="__Uh9FplEamvk5oUluky-27" value="{MANDATORY, AND}" style="text;html=1;align=center;verticalAlign=middle;resizable=0;points=[];autosize=1;strokeColor=none;fillColor=none;fontSize=15;" parent="1" vertex="1">
          <mxGeometry x="135" y="487" width="170" height="30" as="geometry" />
        </mxCell>
        <mxCell id="__Uh9FplEamvk5oUluky-29" value="0..*" style="text;html=1;align=center;verticalAlign=middle;resizable=0;points=[];autosize=1;strokeColor=none;fillColor=none;fontSize=15;" parent="1" vertex="1">
          <mxGeometry x="55" y="285" width="50" height="30" as="geometry" />
        </mxCell>
        <mxCell id="__Uh9FplEamvk5oUluky-30" value="1..*" style="text;html=1;align=center;verticalAlign=middle;resizable=0;points=[];autosize=1;strokeColor=none;fillColor=none;fontSize=15;" parent="1" vertex="1">
          <mxGeometry x="285" y="115" width="50" height="30" as="geometry" />
        </mxCell>
        <mxCell id="__Uh9FplEamvk5oUluky-31" value="FOUND ON" style="text;html=1;align=center;verticalAlign=middle;resizable=0;points=[];autosize=1;strokeColor=none;fillColor=none;fontSize=15;" parent="1" vertex="1">
          <mxGeometry x="20" y="135" width="100" height="30" as="geometry" />
        </mxCell>
        <mxCell id="__Uh9FplEamvk5oUluky-32" value="Restaurant" style="swimlane;childLayout=stackLayout;horizontal=1;startSize=30;horizontalStack=0;rounded=1;fontSize=15;fontStyle=0;strokeWidth=2;resizeParent=0;resizeLast=1;shadow=0;dashed=0;align=center;" parent="1" vertex="1">
          <mxGeometry x="780" y="-40" width="220" height="110" as="geometry" />
        </mxCell>
        <mxCell id="__Uh9FplEamvk5oUluky-33" value="name   - {PK}&#xa;description&#xa;cusine&#xa;&#xa;&#xa;" style="align=left;strokeColor=none;fillColor=none;spacingLeft=4;fontSize=15;verticalAlign=top;resizable=0;rotatable=0;part=1;" parent="__Uh9FplEamvk5oUluky-32" vertex="1">
          <mxGeometry y="30" width="220" height="80" as="geometry" />
        </mxCell>
        <mxCell id="__Uh9FplEamvk5oUluky-35" style="edgeStyle=orthogonalEdgeStyle;rounded=0;orthogonalLoop=1;jettySize=auto;html=1;exitX=0;exitY=0.25;exitDx=0;exitDy=0;entryX=0.5;entryY=0;entryDx=0;entryDy=0;fontSize=15;" parent="1" source="__Uh9FplEamvk5oUluky-33" target="__Uh9FplEamvk5oUluky-12" edge="1">
          <mxGeometry relative="1" as="geometry" />
        </mxCell>
        <mxCell id="__Uh9FplEamvk5oUluky-36" value="FOUND ON" style="text;html=1;align=center;verticalAlign=middle;resizable=0;points=[];autosize=1;strokeColor=none;fillColor=none;fontSize=15;" parent="1" vertex="1">
          <mxGeometry x="550" y="-25" width="100" height="30" as="geometry" />
        </mxCell>
        <mxCell id="__Uh9FplEamvk5oUluky-37" value="0..*" style="text;html=1;align=center;verticalAlign=middle;resizable=0;points=[];autosize=1;strokeColor=none;fillColor=none;fontSize=15;" parent="1" vertex="1">
          <mxGeometry x="730" y="-30" width="50" height="30" as="geometry" />
        </mxCell>
        <mxCell id="__Uh9FplEamvk5oUluky-38" value="1..*" style="text;html=1;align=center;verticalAlign=middle;resizable=0;points=[];autosize=1;strokeColor=none;fillColor=none;fontSize=15;" parent="1" vertex="1">
          <mxGeometry x="410" y="25" width="50" height="30" as="geometry" />
        </mxCell>
        <mxCell id="__Uh9FplEamvk5oUluky-41" style="edgeStyle=orthogonalEdgeStyle;rounded=0;orthogonalLoop=1;jettySize=auto;html=1;exitX=0.5;exitY=0;exitDx=0;exitDy=0;entryX=0.5;entryY=1;entryDx=0;entryDy=0;fontSize=15;" parent="1" source="__Uh9FplEamvk5oUluky-39" target="__Uh9FplEamvk5oUluky-12" edge="1">
          <mxGeometry relative="1" as="geometry" />
        </mxCell>
        <mxCell id="__Uh9FplEamvk5oUluky-39" value="Chair Lift" style="swimlane;childLayout=stackLayout;horizontal=1;startSize=30;horizontalStack=0;rounded=1;fontSize=15;fontStyle=0;strokeWidth=2;resizeParent=0;resizeLast=1;shadow=0;dashed=0;align=center;" parent="1" vertex="1">
          <mxGeometry x="510" y="420" width="220" height="200" as="geometry" />
        </mxCell>
        <mxCell id="__Uh9FplEamvk5oUluky-40" value="name   - {PK}&#xa;verticalRise&#xa;travelTime&#xa;closingTime&#xa;peoplePerChair[1..1]  - [2,4]&#xa;servicedTrailTerrainType[1..1] :&#xa;    trailTypeName&#xa;&#xa;&#xa;&#xa;" style="align=left;strokeColor=none;fillColor=none;spacingLeft=4;fontSize=15;verticalAlign=top;resizable=0;rotatable=0;part=1;" parent="__Uh9FplEamvk5oUluky-39" vertex="1">
          <mxGeometry y="30" width="220" height="170" as="geometry" />
        </mxCell>
        <mxCell id="__Uh9FplEamvk5oUluky-42" value="1..*" style="text;html=1;align=center;verticalAlign=middle;resizable=0;points=[];autosize=1;strokeColor=none;fillColor=none;fontSize=15;" parent="1" vertex="1">
          <mxGeometry x="465" y="275" width="50" height="30" as="geometry" />
        </mxCell>
        <mxCell id="__Uh9FplEamvk5oUluky-43" value="1..*" style="text;html=1;align=center;verticalAlign=middle;resizable=0;points=[];autosize=1;strokeColor=none;fillColor=none;fontSize=15;" parent="1" vertex="1">
          <mxGeometry x="615" y="385" width="50" height="30" as="geometry" />
        </mxCell>
        <mxCell id="__Uh9FplEamvk5oUluky-44" value="BUILT ON" style="text;html=1;align=center;verticalAlign=middle;resizable=0;points=[];autosize=1;strokeColor=none;fillColor=none;fontSize=15;" parent="1" vertex="1">
          <mxGeometry x="475" y="315" width="90" height="30" as="geometry" />
        </mxCell>
        <mxCell id="orbKIHzd0-_m-krfdX9Z-1" style="edgeStyle=orthogonalEdgeStyle;rounded=0;orthogonalLoop=1;jettySize=auto;html=1;exitX=0.5;exitY=0;exitDx=0;exitDy=0;entryX=1;entryY=0.5;entryDx=0;entryDy=0;" edge="1" parent="1" source="__Uh9FplEamvk5oUluky-45" target="__Uh9FplEamvk5oUluky-13">
          <mxGeometry relative="1" as="geometry" />
        </mxCell>
        <mxCell id="__Uh9FplEamvk5oUluky-45" value="Trail" style="swimlane;childLayout=stackLayout;horizontal=1;startSize=30;horizontalStack=0;rounded=1;fontSize=15;fontStyle=0;strokeWidth=2;resizeParent=0;resizeLast=1;shadow=0;dashed=0;align=center;" parent="1" vertex="1">
          <mxGeometry x="920" y="330" width="220" height="110" as="geometry" />
        </mxCell>
        <mxCell id="__Uh9FplEamvk5oUluky-46" value="name   - {PK}&#xa;elevation&#xa;length&#xa;timeToComplete&#xa;&#xa;&#xa;&#xa;" style="align=left;strokeColor=none;fillColor=none;spacingLeft=4;fontSize=15;verticalAlign=top;resizable=0;rotatable=0;part=1;" parent="__Uh9FplEamvk5oUluky-45" vertex="1">
          <mxGeometry y="30" width="220" height="80" as="geometry" />
        </mxCell>
        <mxCell id="orbKIHzd0-_m-krfdX9Z-2" value="1..*" style="text;html=1;align=center;verticalAlign=middle;resizable=0;points=[];autosize=1;strokeColor=none;fillColor=none;" vertex="1" parent="1">
          <mxGeometry x="610" y="145" width="40" height="30" as="geometry" />
        </mxCell>
        <mxCell id="orbKIHzd0-_m-krfdX9Z-3" value="1..*" style="text;html=1;align=center;verticalAlign=middle;resizable=0;points=[];autosize=1;strokeColor=none;fillColor=none;" vertex="1" parent="1">
          <mxGeometry x="1030" y="295" width="40" height="30" as="geometry" />
        </mxCell>
        <mxCell id="orbKIHzd0-_m-krfdX9Z-4" value="Connects" style="text;html=1;align=center;verticalAlign=middle;resizable=0;points=[];autosize=1;strokeColor=none;fillColor=none;" vertex="1" parent="1">
          <mxGeometry x="875" y="155" width="70" height="30" as="geometry" />
        </mxCell>
        <mxCell id="orbKIHzd0-_m-krfdX9Z-5" style="edgeStyle=orthogonalEdgeStyle;rounded=0;orthogonalLoop=1;jettySize=auto;html=1;exitX=1;exitY=0.5;exitDx=0;exitDy=0;entryX=0;entryY=0.5;entryDx=0;entryDy=0;" edge="1" parent="1" source="__Uh9FplEamvk5oUluky-40" target="__Uh9FplEamvk5oUluky-46">
          <mxGeometry relative="1" as="geometry" />
        </mxCell>
        <mxCell id="orbKIHzd0-_m-krfdX9Z-6" value="0..*" style="text;html=1;align=center;verticalAlign=middle;resizable=0;points=[];autosize=1;strokeColor=none;fillColor=none;" vertex="1" parent="1">
          <mxGeometry x="730" y="545" width="40" height="30" as="geometry" />
        </mxCell>
        <mxCell id="orbKIHzd0-_m-krfdX9Z-7" value="1..*" style="text;html=1;align=center;verticalAlign=middle;resizable=0;points=[];autosize=1;strokeColor=none;fillColor=none;" vertex="1" parent="1">
          <mxGeometry x="860" y="375" width="40" height="30" as="geometry" />
        </mxCell>
        <mxCell id="orbKIHzd0-_m-krfdX9Z-8" value="Services" style="text;html=1;align=center;verticalAlign=middle;resizable=0;points=[];autosize=1;strokeColor=none;fillColor=none;" vertex="1" parent="1">
          <mxGeometry x="821" y="455" width="70" height="30" as="geometry" />
        </mxCell>
        <mxCell id="orbKIHzd0-_m-krfdX9Z-10" value="" style="endArrow=none;html=1;rounded=0;exitX=0.5;exitY=0;exitDx=0;exitDy=0;entryX=0;entryY=0.5;entryDx=0;entryDy=0;" edge="1" parent="1" source="__Uh9FplEamvk5oUluky-19" target="__Uh9FplEamvk5oUluky-23">
          <mxGeometry width="50" height="50" relative="1" as="geometry">
            <mxPoint x="410" y="670" as="sourcePoint" />
            <mxPoint x="140" y="490" as="targetPoint" />
            <Array as="points">
              <mxPoint x="-70" y="520" />
              <mxPoint x="140" y="520" />
            </Array>
          </mxGeometry>
        </mxCell>
        <mxCell id="orbKIHzd0-_m-krfdX9Z-11" value="" style="endArrow=none;html=1;rounded=0;" edge="1" parent="1">
          <mxGeometry width="50" height="50" relative="1" as="geometry">
            <mxPoint x="350" y="590" as="sourcePoint" />
            <mxPoint x="140" y="520" as="targetPoint" />
            <Array as="points">
              <mxPoint x="350" y="520" />
            </Array>
          </mxGeometry>
        </mxCell>
        <mxCell id="orbKIHzd0-_m-krfdX9Z-19" value="&lt;&lt;enumeration&gt;&gt;&#xa;trailTypeName&#xa;" style="swimlane;childLayout=stackLayout;horizontal=1;startSize=60;horizontalStack=0;rounded=1;fontSize=15;fontStyle=0;strokeWidth=2;resizeParent=0;resizeLast=1;shadow=0;dashed=0;align=center;" vertex="1" parent="1">
          <mxGeometry x="510" y="680" width="220" height="220" as="geometry" />
        </mxCell>
        <mxCell id="orbKIHzd0-_m-krfdX9Z-20" value="name   - {PK}&#xa;elevation&#xa;length&#xa;timeToComplete&#xa;&#xa;&#xa;&#xa;" style="align=left;strokeColor=none;fillColor=none;spacingLeft=4;fontSize=15;verticalAlign=top;resizable=0;rotatable=0;part=1;" vertex="1" parent="orbKIHzd0-_m-krfdX9Z-19">
          <mxGeometry y="60" width="220" height="160" as="geometry" />
        </mxCell>
      </root>
    </mxGraphModel>
  </diagram>
</mxfile>
